PathFileType	4	(X/Y/Z)	OpenSim_Sub07_CSBaseline_Magnet.trc
DataRate	CameraRate	NumFrames	NumMarkers	Units	OrigDataRate	OrigDataStartFrame	OrigNumFrames
100	100	37	8	m	100	974	7788
Frame#	Time	torso_imu_offset_imu	pelvis_imu_offset_imu	tibia_r_imu_offset_imu	femur_r_imu_offset_imu	tibia_l_imu_offset_imu	femur_l_imu_offset_imu	toes_r_imu_offset_imu	toes_l_imu_offset_imu
				X1	Y1	Z1	X2	Y2	Z2	X3	Y3	Z3	X4	Y4	Z4	X5	Y5	Z5	X6	Y6	Z6	X7	Y7	Z7	X8		Y8	Z8	

974	9.73000000	0.93032243	0.19036090	0.00669905	-0.73625268	0.20246453	-0.56606807	-0.66079239	-0.46618700	0.14783773	-0.86002543	-0.13664994	-0.02150813	-0.39163678	0.74661574	0.06628626	-0.56445960	-0.09573773	0.26848682	-0.65879991	-0.29991213	-0.32369091	-0.80150545	-0.26275449	0.00760402
975	9.74000000	0.93710314	0.19101279	0.00876933	-0.73709479	0.19825292	-0.57074880	-0.65725242	-0.46839649	0.15456799	-0.85253214	-0.14577955	-0.01894622	-0.37298619	0.75887169	0.05953246	-0.57252110	-0.10405258	0.25992092	-0.66281584	-0.30478949	-0.32108680	-0.79775679	-0.25823180	0.05110181
976	9.75000000	0.93429109	0.19583917	0.00590949	-0.73701119	0.19979722	-0.56817964	-0.64918345	-0.47006338	0.16437388	-0.85090447	-0.15446800	-0.01556556	-0.35872100	0.76788297	0.05069953	-0.58434781	-0.10790963	0.24682959	-0.66321087	-0.31034681	-0.32025226	-0.79427616	-0.24642007	0.09410097
977	9.76000000	0.93379434	0.19268699	0.00717728	-0.73290722	0.19618406	-0.57221016	-0.63931578	-0.48023437	0.17136319	-0.84940414	-0.15868584	-0.01891799	-0.32708706	0.77451262	0.04152547	-0.59687023	-0.11982828	0.23198415	-0.65989026	-0.31030177	-0.32225059	-0.78839627	-0.23687096	0.14641562
978	9.77000000	0.92911082	0.19105580	0.00949856	-0.72833242	0.19191639	-0.57480618	-0.63702722	-0.48937904	0.17042466	-0.84778761	-0.16439739	-0.01900096	-0.30571493	0.77809601	0.03335354	-0.60634272	-0.13134141	0.21719534	-0.66486517	-0.30996575	-0.32205850	-0.77605377	-0.23171823	0.19049901
979	9.78000000	0.92916902	0.19233906	0.00663092	-0.73571477	0.19573146	-0.57210852	-0.63525022	-0.49613304	0.16739789	-0.84499695	-0.17832488	-0.01741638	-0.29488484	0.79174244	0.02916951	-0.61595331	-0.14381855	0.19684458	-0.65935524	-0.31377850	-0.31676844	-0.76309318	-0.22147680	0.23265587
980	9.79000000	0.93314539	0.19255625	0.00288833	-0.73741540	0.18605155	-0.57364622	-0.62830226	-0.50350078	0.16410921	-0.84502019	-0.19582162	-0.01783507	-0.27024047	0.80169301	0.00770045	-0.62360959	-0.15144054	0.17946320	-0.65900910	-0.31288880	-0.31322453	-0.74995060	-0.20562760	0.27823982
981	9.80000000	0.93577217	0.18906552	0.00706836	-0.73272459	0.18504704	-0.57838955	-0.62520465	-0.50768290	0.16064350	-0.83801722	-0.19542967	-0.01759129	-0.24539572	0.80349553	-0.00761705	-0.62874048	-0.16238518	0.16556050	-0.66155924	-0.31411106	-0.31977155	-0.73823981	-0.19685618	0.31067888
982	9.81000000	0.93490533	0.19265134	0.00786538	-0.73295015	0.18567690	-0.58409346	-0.62195840	-0.51400044	0.16051874	-0.83483894	-0.20910467	-0.02411488	-0.23203405	0.80838676	-0.02068674	-0.64238423	-0.17662529	0.15365595	-0.65767687	-0.31413426	-0.31500462	-0.72950626	-0.17851128	0.34110818
983	9.82000000	0.93063713	0.19249112	0.01029148	-0.72859865	0.18184182	-0.58876652	-0.61538301	-0.51675720	0.16706155	-0.83584861	-0.22192982	-0.01865279	-0.21053666	0.80879570	-0.04345803	-0.64486573	-0.18477210	0.13791286	-0.65001128	-0.31537083	-0.31561808	-0.71531367	-0.15767489	0.37810193
984	9.83000000	0.93567720	0.18465049	0.00672142	-0.73174976	0.18204824	-0.58500921	-0.61308380	-0.51661620	0.16720714	-0.83565458	-0.22995754	-0.00999865	-0.19215459	0.81244584	-0.06373030	-0.64993361	-0.19764142	0.12534572	-0.65651828	-0.32046446	-0.31175339	-0.70156308	-0.13899428	0.40773122
985	9.84000000	0.93388793	0.18124064	0.01537503	-0.72725641	0.17851896	-0.58452769	-0.61611285	-0.51971434	0.17898749	-0.82827331	-0.24113708	-0.01242026	-0.17693781	0.82201234	-0.08201949	-0.65616910	-0.20702436	0.11525580	-0.65697448	-0.31479688	-0.30600855	-0.68675217	-0.11356962	0.43142006
986	9.85000000	0.93307216	0.18203280	0.02216499	-0.72834682	0.17205736	-0.58560667	-0.61575543	-0.51969206	0.18042467	-0.82563123	-0.24908054	-0.00860903	-0.16725228	0.81947590	-0.09668925	-0.65836285	-0.21109819	0.10550882	-0.65192843	-0.31768991	-0.30594795	-0.67941293	-0.08648172	0.44951151
987	9.86000000	0.93544628	0.17834289	0.01772233	-0.73027056	0.16966827	-0.58283613	-0.61312489	-0.52085110	0.18341489	-0.82477134	-0.25495921	-0.00748011	-0.16390811	0.81544724	-0.10221637	-0.66022307	-0.22064702	0.09576213	-0.65135708	-0.31655487	-0.30602972	-0.69312498	-0.05827726	0.43829632
988	9.87000000	0.93465911	0.17822577	0.02162538	-0.72820503	0.17295286	-0.58499427	-0.61389423	-0.52643786	0.19041829	-0.81945261	-0.26800035	-0.00508110	-0.15481395	0.81402976	-0.12229323	-0.66883988	-0.22280247	0.09331351	-0.64792376	-0.31479206	-0.30331521	-0.70528760	-0.03708402	0.41875030
989	9.88000000	0.93638331	0.17637775	0.02653893	-0.72670871	0.17206113	-0.58848205	-0.60601895	-0.52301122	0.18681077	-0.81591369	-0.27711427	-0.00264882	-0.15252904	0.81444128	-0.13186576	-0.67219105	-0.23012974	0.09346767	-0.64741764	-0.31611552	-0.30459643	-0.72635010	-0.02206557	0.39493393
990	9.89000000	0.93883099	0.17655777	0.02933989	-0.73286630	0.16328076	-0.58876927	-0.60259507	-0.52807077	0.18968147	-0.81301631	-0.28576248	-0.00556347	-0.15204570	0.81334706	-0.14394857	-0.67189674	-0.23675925	0.08896567	-0.64267022	-0.31588235	-0.30406471	-0.74140791	-0.00281409	0.36661148
991	9.90000000	0.93322980	0.17308795	0.03044192	-0.73400144	0.15728274	-0.59382761	-0.60310506	-0.53393618	0.19045345	-0.80875318	-0.29247227	-0.00464886	-0.15022002	0.80852442	-0.15762025	-0.67325086	-0.24666405	0.08049515	-0.63874217	-0.31384118	-0.30644164	-0.75505242	0.01521085	0.33817865
992	9.91000000	0.93130306	0.16991017	0.02966159	-0.73220366	0.15617385	-0.59409507	-0.60394503	-0.53968262	0.17829692	-0.80770041	-0.30242339	-0.00648901	-0.15455021	0.80497357	-0.17393672	-0.68264424	-0.25600265	0.07248610	-0.63855094	-0.31626644	-0.30279720	-0.76590392	0.02789978	0.31456972
993	9.92000000	0.93307860	0.16972212	0.02679111	-0.73036387	0.15823178	-0.59280197	-0.60585061	-0.53725528	0.17549031	-0.80569674	-0.31504866	-0.00899067	-0.16438372	0.80230528	-0.18679706	-0.68516972	-0.25993497	0.06753691	-0.63845756	-0.31290849	-0.30642793	-0.77540499	0.04093419	0.29155869
994	9.93000000	0.93437763	0.16800548	0.03491725	-0.73292243	0.15101082	-0.59475753	-0.59671559	-0.54523866	0.17591036	-0.79890302	-0.31570161	-0.02136387	-0.17680620	0.79794243	-0.19319405	-0.68947101	-0.26831802	0.07144624	-0.63273780	-0.31550025	-0.31068699	-0.78863291	0.05137192	0.26161647
995	9.94000000	0.93728795	0.16338358	0.03472311	-0.73245787	0.14805357	-0.59438344	-0.59900706	-0.55149234	0.17000871	-0.79625026	-0.32366459	-0.01969493	-0.19711457	0.79232949	-0.20530032	-0.68795086	-0.28308879	0.06486891	-0.62973467	-0.31400731	-0.31419292	-0.79931492	0.05908241	0.22962044
996	9.95000000	0.93587668	0.16216743	0.03633858	-0.73381120	0.14547460	-0.59407780	-0.59725684	-0.54858654	0.16627702	-0.79528352	-0.33375100	-0.02932856	-0.21716257	0.78353925	-0.21204111	-0.69619074	-0.29118936	0.06430403	-0.62516576	-0.31357311	-0.31622412	-0.80668211	0.06274451	0.20142894
997	9.96000000	0.93672074	0.17074349	0.03796327	-0.72914233	0.13650854	-0.59435346	-0.59495575	-0.55572294	0.16269837	-0.78962919	-0.34441052	-0.03625696	-0.23423245	0.77772891	-0.20721610	-0.69917026	-0.29134914	0.07029212	-0.62732349	-0.31718292	-0.32177351	-0.82042103	0.05931907	0.16744414
998	9.97000000	0.93611696	0.16422433	0.04317936	-0.73265292	0.13082157	-0.59676113	-0.59122758	-0.55899912	0.17091145	-0.78807962	-0.33964223	-0.04383357	-0.25964915	0.76882657	-0.20286673	-0.69475044	-0.30288674	0.06483589	-0.62380782	-0.31625545	-0.32622350	-0.81909693	0.05343592	0.13633521
999	9.98000000	0.93577677	0.16111950	0.04014418	-0.73082242	0.13585315	-0.59935047	-0.59449148	-0.56013809	0.16838110	-0.78697659	-0.35773049	-0.04587374	-0.28435748	0.76082256	-0.18947197	-0.69476168	-0.31203191	0.06158588	-0.62079112	-0.31780078	-0.33119185	-0.82321943	0.05415842	0.10503783
1000	9.99000000	0.93176800	0.15926263	0.04226088	-0.73313124	0.12644383	-0.60090558	-0.59314646	-0.56168398	0.15776701	-0.77914992	-0.36656756	-0.05317471	-0.31124242	0.75980501	-0.16160541	-0.69578720	-0.31609755	0.06500882	-0.62044608	-0.32070864	-0.34202428	-0.83109302	0.03936275	0.07225359
1001	10	0.94036066	0.16065089	0.04618130	-0.73135037	0.12180027	-0.60471335	-0.59275245	-0.56848630	0.15992713	-0.77676587	-0.36326461	-0.05911347	-0.33791028	0.75329031	-0.13872101	-0.69953984	-0.31591742	0.05856889	-0.61846700	-0.32147859	-0.34262420	-0.82794562	0.02313935	0.03648347
1002	10.01000000	0.94436536	0.16067861	0.04867498	-0.72724013	0.12661174	-0.61116671	-0.58387468	-0.57087729	0.16541333	-0.77036399	-0.37708321	-0.06407048	-0.36400707	0.74212953	-0.10875790	-0.69874152	-0.32762491	0.05785387	-0.61926857	-0.32555311	-0.34527997	-0.82987594	0.00540693	0.00323856
1003	10.02000000	0.93973228	0.15840174	0.04853292	-0.72609007	0.12451900	-0.60717820	-0.58152389	-0.57143946	0.16484480	-0.76918630	-0.38402586	-0.06925423	-0.39172388	0.72532373	-0.08258210	-0.69802861	-0.33103173	0.06436409	-0.62058695	-0.32742487	-0.35145472	-0.82795803	-0.01794481	-0.02550915
1004	10.03000000	0.93545603	0.16214997	0.04557857	-0.72553787	0.12035383	-0.60456111	-0.58222828	-0.57225068	0.16391815	-0.76457086	-0.38855089	-0.07259268	-0.42243488	0.71652180	-0.06983297	-0.70066941	-0.34049804	0.06161838	-0.62144264	-0.33728317	-0.36113761	-0.82540850	-0.03426872	-0.04707250
1005	10.04000000	0.93861112	0.15800402	0.05168134	-0.72355362	0.11946828	-0.61275832	-0.58441753	-0.57139144	0.16372896	-0.75773602	-0.39316594	-0.07749895	-0.45154298	0.69569536	-0.05551878	-0.70261791	-0.34278655	0.05931601	-0.62508930	-0.34359796	-0.36688508	-0.82051707	-0.05253911	-0.07468094
1006	10.05000000	0.94045878	0.15587345	0.05474231	-0.72431596	0.11869363	-0.60748854	-0.58170036	-0.57655292	0.16726227	-0.75804444	-0.40550790	-0.07856802	-0.48507829	0.67290135	-0.04720369	-0.69666604	-0.34946176	0.06018294	-0.62781577	-0.34138410	-0.37270658	-0.81065361	-0.07265053	-0.10359314
1007	10.06000000	0.93832755	0.15762316	0.05390686	-0.72663640	0.11742495	-0.61090633	-0.57789625	-0.57951567	0.16433895	-0.74981702	-0.41390152	-0.08381550	-0.51260076	0.65191222	-0.03998756	-0.70245227	-0.34909733	0.05611097	-0.63087245	-0.35250764	-0.37657575	-0.80391491	-0.09027470	-0.12721949
1008	10.07000000	0.93669795	0.15446214	0.05554291	-0.72803150	0.11583303	-0.61738895	-0.58145544	-0.58287652	0.16160858	-0.73932212	-0.42328773	-0.08880440	-0.53551056	0.63923296	-0.03593934	-0.69619676	-0.34950343	0.05672633	-0.63447800	-0.35238747	-0.38482390	-0.79589219	-0.10296680	-0.16068828
1009	10.08000000	0.93884886	0.15379821	0.05985494	-0.72330948	0.11031885	-0.61371342	-0.57802804	-0.58806861	0.15824880	-0.73775841	-0.43378316	-0.09517116	-0.56490205	0.60517133	-0.03610412	-0.69238075	-0.35447522	0.05688902	-0.63883876	-0.35887858	-0.39325347	-0.78619274	-0.11906785	-0.18824271
1010	10.09000000	0.93692577	0.15566988	0.06126601	-0.71971081	0.11163224	-0.62443959	-0.57714700	-0.58713676	0.15896601	-0.73158713	-0.44936436	-0.08943670	-0.59120648	0.57631857	-0.02767847	-0.69142931	-0.35608430	0.06027833	-0.64462675	-0.36348931	-0.39391298	-0.78192772	-0.12760176	-0.20906975
